<?xml version="1.0" standalone="no"?><!DOCTYPE svg PUBLIC "-//W3C//DTD SVG 1.1//EN" "http://www.w3.org/Graphics/SVG/1.1/DTD/svg11.dtd"><svg t="1650338558673" class="icon" viewBox="0 0 1024 1024" version="1.1" xmlns="http://www.w3.org/2000/svg" p-id="4044" xmlns:xlink="http://www.w3.org/1999/xlink" width="200" height="200"><defs><style type="text/css"></style></defs><path d="M0 0h1024v1024H0z" p-id="4045"></path><path d="M0 0h1024v1024H0z" fill="#CCCCCC" p-id="4046"></path><path d="M829.297 365.773a33.004 33.004 0 0 1-16.62 43.714l-41.073 18.484a11.98 11.98 0 0 0-7.065 10.577l-1.229 232.664-0.133 1.433c0.154 2.181 0.225 4.403 0.225 6.625 0 55.47-45.547 100.434-101.724 100.434-56.177 0-101.714-44.964-101.714-100.434 0-55.46 45.537-100.423 101.714-100.423 13.015 0 25.457 2.406 36.895 6.81l-0.266-148.583a78.418 78.418 0 0 1 46.08-69.315l41.052-18.442a33.352 33.352 0 0 1 43.858 16.456z m-361.78 298.363a41.708 41.708 0 0 1 41.708 41.707v8.745a41.708 41.708 0 0 1-41.697 41.708H315.412a41.708 41.708 0 0 1-41.707-41.708v-8.745a41.708 41.708 0 0 1 41.707-41.707h152.116z m61.44-184.32a41.708 41.708 0 0 1 41.708 41.707v8.745a41.708 41.708 0 0 1-41.697 41.708H315.412a41.708 41.708 0 0 1-41.707-41.708v-8.745a41.708 41.708 0 0 1 41.707-41.707h213.556z m102.4-184.32a41.708 41.708 0 0 1 41.708 41.707v8.745a41.708 41.708 0 0 1-41.697 41.708H315.412a41.708 41.708 0 0 1-41.707-41.708v-8.745a41.708 41.708 0 0 1 41.707-41.707h315.956z" fill="#FFFFFF" p-id="4047"></path></svg>